<svg width="104" height="60" viewBox="0 0 104 60" fill="none" xmlns="http://www.w3.org/2000/svg">
<g clip-path="url(#clip0_43509_53613)">
<path d="M2.58435 20.7492C1.67546 23.5121 0.924115 25.7802 0.916036 25.8C0.907957 25.8158 3.33166 25.8238 6.30474 25.8198L11.7096 25.8079L12.8528 22.3444C13.4789 20.4404 14.2262 18.1723 14.513 17.3054L15.0301 15.734H9.6333H4.23651L2.58435 20.7492Z" fill="white"/>
<path d="M15.0762 15.7617C15.0762 15.7815 15.8194 18.0457 16.7283 20.8007L18.3805 25.808L23.7773 25.8198C27.4815 25.8238 29.1741 25.8159 29.1741 25.7882C29.1741 25.7565 26.8715 18.774 25.9586 16.0388L25.8536 15.734H20.4649C17.4999 15.734 15.0762 15.7459 15.0762 15.7617Z" fill="white"/>
<path d="M44.5328 21.9518C44.3712 21.9874 44.0682 22.1022 43.8622 22.2051C43.2159 22.5178 42.6221 23.1511 42.3757 23.7963C42.2707 24.0655 37.5 40.1205 37.5 40.1997C37.5 40.2274 38.0171 40.2393 39.0673 40.2393H40.6306L41.3133 37.9711C41.689 36.7282 42.0202 35.6476 42.0485 35.5763L42.101 35.4497H45.3124C47.7078 35.4497 48.5319 35.4616 48.5521 35.4972C48.5683 35.5209 48.8914 36.5936 49.2711 37.8801L49.9619 40.2195L51.5292 40.2313C52.3896 40.2353 53.0925 40.2313 53.0925 40.2195C53.0925 40.1561 48.2653 23.9982 48.1805 23.7805C47.8411 22.8938 47.0252 22.1932 46.0476 21.9518C45.6315 21.8488 44.9569 21.8488 44.5328 21.9518ZM45.3851 24.8849C45.4336 24.972 47.8008 32.9955 47.8008 33.0786C47.8008 33.1499 47.7119 33.1538 45.3205 33.1538C43.8582 33.1538 42.8281 33.138 42.816 33.1182C42.7918 33.0826 45.1266 25.0828 45.2155 24.8888C45.2599 24.7899 45.3286 24.7899 45.3851 24.8849Z" fill="white"/>
<path d="M96.2134 21.9095C95.1954 22.0361 94.1411 22.4913 93.3252 23.1524C92.1537 24.1103 91.2125 25.8045 90.7641 27.7757C90.3804 29.4541 90.2794 31.7934 90.5217 33.4243C90.756 34.9957 91.4306 36.7888 92.2547 38.0199C92.5536 38.4711 93.1595 39.1045 93.5756 39.4093C95.6802 40.9372 98.5482 40.858 100.556 39.2193C101.877 38.1426 102.866 36.1991 103.258 33.9111C103.424 32.9493 103.444 32.6445 103.444 31.168C103.444 29.8934 103.432 29.648 103.351 29.078C103.016 26.6753 102.216 24.8188 100.964 23.5561C100.54 23.1286 100.192 22.8595 99.7197 22.5943C98.6775 22.0124 97.401 21.763 96.2134 21.9095ZM97.506 24.2211C97.9746 24.3438 98.4473 24.6724 98.8068 25.1316C99.4289 25.9232 100.019 27.6768 100.213 29.3234C100.285 29.9449 100.301 32.3832 100.233 32.9493C100.087 34.1922 99.7843 35.3401 99.3279 36.3534C98.8027 37.5211 97.9464 38.1782 96.9486 38.1743C96.1649 38.1703 95.5146 37.7863 94.9248 36.9749C94.3795 36.2228 93.8018 34.3545 93.6483 32.8345C93.5837 32.1813 93.5958 29.9766 93.6726 29.3472C93.822 28.0686 94.1977 26.7386 94.6784 25.7649C95.0823 24.9534 95.6842 24.4032 96.3669 24.2211C96.6497 24.1499 97.2112 24.1459 97.506 24.2211Z" fill="white"/>
<path d="M77.4902 31.1747V40.2393H79.0051H80.5199L80.5279 35.8732L80.5401 31.5111L80.843 31.3647C81.5863 31.0005 82.5396 30.7709 83.3273 30.763C83.8363 30.7591 83.8605 30.763 84.1271 30.8857C84.4826 31.052 84.8058 31.3647 84.9754 31.717L85.1047 31.9861L85.1168 36.1107L85.1249 40.2393H86.6438H88.1586L88.1424 36.0513C88.1303 31.9861 88.1263 31.8555 88.0455 31.5111C87.8475 30.672 87.4799 30.0307 86.87 29.4686C85.8359 28.5147 84.5432 28.2178 82.9234 28.5622C82.2488 28.7086 81.457 29.0174 80.839 29.3776C80.4916 29.5795 80.5199 29.908 80.5199 25.7716V22.1101H79.0051H77.4902V31.1747Z" fill="white"/>
<path d="M69.6122 26.5841C69.6122 27.8191 69.596 28.5118 69.5718 28.5633C69.5314 28.6345 69.4748 28.6385 68.5821 28.6385H67.6328V29.7864V30.9343H68.5579C69.2729 30.9343 69.491 30.9462 69.5233 30.9858C69.5556 31.0214 69.5718 32.0743 69.5799 34.5008C69.596 38.4037 69.5718 38.1187 69.9232 38.8114C70.0848 39.132 70.1737 39.2468 70.5009 39.5635C70.824 39.8841 70.9452 39.9712 71.2684 40.1295C71.8501 40.4106 72.0561 40.4541 72.864 40.4541C73.5305 40.4541 73.8981 40.4066 74.3909 40.2681L74.5404 40.2245V39.1874V38.1504L73.9991 38.1701C73.7042 38.1781 73.3972 38.1781 73.3204 38.1622C73.0942 38.1226 72.8276 37.9247 72.7105 37.707L72.6014 37.5131V34.2474C72.6014 31.3064 72.6095 30.9818 72.666 30.9581C72.7024 30.9462 73.1387 30.9343 73.6355 30.9343H74.5404V29.7864V28.6385H73.5911H72.6418V26.6593V24.6801H71.127H69.6122V26.5841Z" fill="white"/>
<path d="M0.860712 25.8807C0.860712 25.8886 0.788001 26.1419 0.699132 26.4467C-0.201679 29.5342 -0.124928 32.6296 0.925345 35.4202C1.02633 35.6815 1.2889 36.2555 1.50703 36.6909C2.46036 38.583 3.80956 40.198 5.66773 41.6625C5.96665 41.9 6.23326 42.094 6.25346 42.094C6.31001 42.094 9.60221 32.0794 9.55778 32.0398C9.47699 31.9686 0.901107 25.8648 0.88091 25.8648C0.868791 25.8648 0.860712 25.8727 0.860712 25.8807Z" fill="white"/>
<path d="M24.8545 28.9529C22.4671 30.655 20.512 32.0602 20.5039 32.076C20.4958 32.1037 23.7921 42.0945 23.8204 42.1222C23.8244 42.1262 24.0466 41.9639 24.3132 41.7581C27.3509 39.4029 29.2495 36.3985 29.8271 33.0339C29.9806 32.1314 30.0089 31.7593 30.0049 30.6589C30.0049 29.4556 29.9362 28.7985 29.7059 27.6822C29.5888 27.1241 29.2939 26.0356 29.2252 25.9208C29.205 25.8772 28.1022 26.6452 24.8545 28.9529Z" fill="white"/>
<path d="M54.8013 32.9395L54.8134 37.2462L54.9063 37.5628C55.4436 39.4034 57.0594 40.5474 59.0105 40.4564C60.1779 40.4049 61.317 40.0328 62.3269 39.3757C62.5127 39.257 62.6864 39.1659 62.7147 39.1778C62.743 39.1857 62.844 39.4312 62.9409 39.7162L63.1146 40.2347H64.3063H65.4939V34.4357V28.6368H63.9791H62.4643V30.3072C62.4643 31.2295 62.4521 33.2007 62.436 34.6891L62.4118 37.3966L62.0644 37.5549C61.0949 37.9903 59.8345 38.2437 59.2205 38.117C58.5419 37.9784 58.0087 37.4599 57.8633 36.7989C57.8309 36.6524 57.8188 35.4095 57.8188 32.6149V28.6368H56.304H54.7852L54.8013 32.9395Z" fill="white"/>
<path d="M10.6683 39.0504C8.2809 40.7485 6.33386 42.1498 6.3379 42.1616C6.35002 42.1893 14.9501 48.3129 15.0148 48.3366C15.0511 48.3525 23.5502 42.3477 23.732 42.1775C23.7643 42.1498 15.1158 35.9629 15.043 35.9629C15.0228 35.9629 13.0516 37.3523 10.6683 39.0504Z" fill="white"/>
</g>
<defs>
<clipPath id="clip0_43509_53613">
<rect width="103.411" height="32.6562" fill="white" transform="translate(0.0566406 15.7344)"/>
</clipPath>
</defs>
</svg>
