<svg width="49" height="60" viewBox="0 0 49 60" fill="none" xmlns="http://www.w3.org/2000/svg">
<path fill-rule="evenodd" clip-rule="evenodd" d="M3.62892 31.9925C3.846 32.149 4.08642 32.2702 4.34131 32.3517C4.8457 32.5109 5.3869 32.5108 5.89124 32.3514C6.14753 32.2703 6.3894 32.1491 6.60789 31.9925C6.82819 31.8339 7.02185 31.6412 7.1816 31.4218C7.49445 30.9895 7.6625 30.4693 7.6617 29.9357C7.6617 29.6736 7.62215 29.4103 7.54155 29.1569C7.37698 28.6383 7.05 28.1864 6.60889 27.8678C6.39067 27.7107 6.14886 27.5892 5.89249 27.5079C5.38732 27.3478 4.84503 27.3477 4.3398 27.5076C3.82301 27.6731 3.37321 28.0006 3.05695 28.4416C2.90022 28.66 2.77907 28.9019 2.698 29.1582C2.6179 29.4115 2.57835 29.6743 2.57835 29.9357C2.57835 30.197 2.61765 30.4571 2.69775 30.7081C2.86243 31.225 3.18887 31.6753 3.62892 31.9925ZM9.13655 17.4849H1.09375L5.12353 26.6148L9.13655 17.4849Z" fill="white"/>
<path fill-rule="evenodd" clip-rule="evenodd" d="M11.6838 39.4894C11.6835 39.7372 11.6347 39.9825 11.5401 40.2116C11.3482 40.6736 10.981 41.0407 10.5191 41.2326C10.29 41.3271 10.0447 41.3759 9.7969 41.376H9.41442C9.16762 41.376 8.92056 41.327 8.69227 41.2326C8.2302 41.0408 7.86303 40.6736 7.67125 40.2116C7.57671 39.9825 7.52798 39.7372 7.52782 39.4894L7.52456 35.2101L3.17188 35.2041V38.4348C3.17188 39.0919 3.30304 39.7492 3.55385 40.3563C3.80649 40.9653 4.17637 41.5188 4.64246 41.9853C5.10885 42.4513 5.66226 42.8211 6.27125 43.0736C6.88059 43.3254 7.53336 43.4552 8.19265 43.4559H10.8838C11.5408 43.4559 12.1979 43.3247 12.8052 43.0736C13.4142 42.8211 13.9676 42.4513 14.4339 41.9853C14.9001 41.5189 15.27 40.9654 15.5226 40.3563C15.7742 39.7469 15.904 39.0941 15.9045 38.4348V17.5029L11.6818 17.509L11.6838 39.4894ZM43.8542 35.2101L43.8507 39.0096C43.8507 39.2564 43.8014 39.5037 43.7075 39.7317C43.6125 39.9605 43.4734 40.1685 43.2983 40.3437C43.1232 40.519 42.9152 40.658 42.6862 40.7527C42.4572 40.8474 42.2119 40.8962 41.9641 40.8964H41.5819C41.3341 40.8961 41.0887 40.8473 40.8597 40.7527C40.6308 40.658 40.4228 40.519 40.2477 40.3437C40.0732 40.1693 39.9328 39.9598 39.8384 39.7317C39.7441 39.5037 39.6948 39.2566 39.6948 39.0096L39.6968 17.509L35.4742 17.5029L35.4757 42.9172H47.916L47.9195 35.2041L43.8542 35.2101ZM31.9553 31.4026C31.7468 30.9089 31.4437 30.4608 31.0632 30.0834C30.7078 29.7309 30.281 29.4585 29.8117 29.2844C30.2022 29.097 30.5607 28.8491 30.874 28.55C31.1931 28.2469 31.4747 27.8877 31.6645 27.4827C31.855 27.0741 31.9537 26.6288 31.9538 26.178L31.9563 21.5525C31.9563 21.0178 31.8497 20.4829 31.6459 19.9896C31.4422 19.4962 31.1401 19.0446 30.7626 18.6674C30.3856 18.2902 29.9343 17.9878 29.4412 17.7836C28.9481 17.5793 28.4137 17.4724 27.8787 17.4724H19.4813V42.9185H28.1984C29.0048 42.9184 29.7932 42.6792 30.4637 42.2312C31.1343 41.7831 31.6569 41.1463 31.9656 40.4013C32.17 39.9057 32.2755 39.3748 32.276 38.8386C32.276 36.8884 32.271 34.9385 32.276 32.9885C32.276 32.4438 32.1669 31.9045 31.9553 31.4026ZM23.5786 19.6647L25.7886 19.6571C26.0364 19.6569 26.2819 19.7057 26.5108 19.8005C26.7397 19.8954 26.9477 20.0345 27.1228 20.2098C27.2978 20.3845 27.4377 20.5938 27.5321 20.8218C27.6264 21.0499 27.6747 21.2969 27.6757 21.544L27.6875 26.6456C27.6876 26.9556 27.5957 27.2586 27.4235 27.5164C27.2513 27.7741 27.0065 27.9749 26.72 28.0934C26.5298 28.1716 26.3262 28.2121 26.1205 28.2128L23.5786 28.2226V19.6647ZM27.7281 39.6216C27.6494 39.8117 27.534 39.9844 27.3884 40.1299C27.2429 40.2754 27.0701 40.3908 26.88 40.4694C26.6898 40.5478 26.4862 40.5883 26.2805 40.5888L23.5789 40.5986V30.5089L25.9486 30.5014C26.1964 30.5011 26.4419 30.5498 26.6708 30.6446C26.8998 30.7395 27.1077 30.8786 27.2827 31.0541C27.4572 31.2286 27.5976 31.4381 27.692 31.6661C27.7864 31.8942 27.8352 32.1412 27.8357 32.3883L27.8475 39.0221C27.8472 39.2278 27.8066 39.4315 27.7281 39.6216Z" fill="white"/>
</svg>
