<svg width="139" height="60" viewBox="0 0 139 60" fill="none" xmlns="http://www.w3.org/2000/svg">
<g clip-path="url(#clip0_43509_53636)">
<g clip-path="url(#clip1_43509_53636)">
<path d="M47.6833 21.9419C49.5269 21.9419 50.9847 22.6035 52.0137 23.8854L50.7274 24.7537C49.9557 23.7613 48.9267 23.2237 47.6404 23.2237C46.6114 23.2237 45.7539 23.4719 45.1108 24.0094C44.4677 24.547 44.1247 25.2499 44.0818 26.1183C44.0818 26.9039 44.3391 27.5242 44.8107 28.0204C45.3252 28.5166 46.1827 28.9301 47.3832 29.2609C49.0124 29.7157 50.0843 30.1292 50.5988 30.5014C51.1562 30.8735 51.5421 31.287 51.8422 31.8246C52.0994 32.3621 52.2709 32.9824 52.2709 33.7681C52.2709 35.0086 51.7993 36.0423 50.8989 36.828C49.9986 37.6136 48.7981 38.0271 47.3403 38.0685C45.0679 38.0685 43.3529 37.2828 42.1953 35.7529L43.6102 34.8432C44.3819 36.125 45.6253 36.7453 47.2546 36.7866C48.3264 36.7866 49.1839 36.4972 49.8271 35.9183C50.4702 35.3394 50.8132 34.6364 50.8132 33.7681C50.8132 33.2718 50.7274 32.8583 50.5131 32.5275C50.3416 32.1967 50.0414 31.9073 49.6556 31.7005C49.2697 31.4524 48.7981 31.2457 48.1978 31.0389C47.5976 30.8322 46.9116 30.6254 46.1398 30.3773C44.9393 30.0052 44.0389 29.4676 43.4816 28.806C42.9242 28.1444 42.6241 27.2761 42.6241 26.201C42.6241 24.9605 43.0957 23.9681 44.0818 23.1824C45.0679 22.3967 46.1827 21.9419 47.6833 21.9419ZM67.2343 22.3554V23.6373H59.0023V29.0955H66.7198V30.3773H59.0023V36.3318H67.5773V37.6136H57.5017V22.3554H67.2343ZM74.6517 22.3554L84.3414 35.7529H84.3843V22.3554H85.8849V37.655H83.9984L74.3087 24.2575H74.2229V37.655H72.7223V22.3554H74.6517ZM101.834 22.3554V23.6373H93.6024V29.0955H101.32V30.3773H93.6024V36.3318H102.177V37.6136H92.1018V22.3554H101.834ZM114.483 21.9419C116.841 21.9419 118.641 22.7275 119.971 24.3402L118.77 25.3326C118.341 24.671 117.741 24.1748 116.969 23.8027C116.24 23.4305 115.383 23.2651 114.483 23.2651C112.51 23.2651 110.881 23.8854 109.638 25.1672C108.394 26.4077 107.751 28.0617 107.751 30.0465C107.751 32.0313 108.394 33.644 109.638 34.8845C110.881 36.125 112.51 36.7866 114.483 36.7866C115.34 36.7866 116.198 36.5799 117.098 36.1664C117.998 35.7529 118.684 35.174 119.199 34.3883L120.399 35.2567C118.984 37.1174 117.012 38.0685 114.483 38.0685C112.039 38.0685 110.066 37.2828 108.566 35.7942C107.065 34.2643 106.293 32.3621 106.251 30.0465C106.251 27.6896 107.022 25.7875 108.566 24.2989C110.109 22.8102 112.082 21.9832 114.483 21.9419ZM126.873 32.2794H134.162L130.561 23.8854L126.873 32.2794ZM131.418 22.3554L138.107 37.655H136.435L134.72 33.6027H126.316L124.515 37.655H122.972L129.918 22.3554H131.418Z" fill="white"/>
<path fill-rule="evenodd" clip-rule="evenodd" d="M17.7131 26.8995C17.5416 26.8995 17.3701 26.7341 17.3272 26.5274L16.5983 17.6371C16.384 15.3215 16.8556 13.7915 17.7131 13.7915C18.6135 13.7915 19.0422 15.3215 18.8278 17.6371L18.099 26.5274C18.0561 26.7755 17.8846 26.8995 17.7131 26.8995Z" fill="white"/>
<path fill-rule="evenodd" clip-rule="evenodd" d="M17.7082 33.0967C17.8797 33.0967 18.0512 33.2621 18.0941 33.4688L18.823 42.3591C19.0374 44.6747 18.5657 46.2047 17.7082 46.2047C16.8079 46.2047 16.3791 44.6747 16.5935 42.3591L17.3224 33.4688C17.3224 33.2207 17.4939 33.0967 17.7082 33.0967Z" fill="white"/>
<path fill-rule="evenodd" clip-rule="evenodd" d="M20.8848 29.9992C20.8848 29.8338 21.0563 29.6684 21.2706 29.6271L30.4888 28.9241C32.8898 28.7174 34.4761 29.1722 34.4761 29.9992C34.4761 30.8676 32.8898 31.2811 30.4888 31.0743L21.2706 30.3714C21.0563 30.33 20.8848 30.1646 20.8848 29.9992Z" fill="white"/>
<path fill-rule="evenodd" clip-rule="evenodd" d="M14.4996 30.0023C14.4996 30.1677 14.3281 30.3331 14.1137 30.3745L4.89558 31.0774C2.49458 31.2842 0.908203 30.8293 0.908203 30.0023C0.908203 29.134 2.49458 28.7205 4.89558 28.9272L14.1137 29.6302C14.3281 29.6715 14.4996 29.8369 14.4996 30.0023Z" fill="white"/>
<path fill-rule="evenodd" clip-rule="evenodd" d="M21.314 25.6613C21.1853 25.5373 21.1425 25.3305 21.2282 25.2065L25.43 20.1204C26.5018 18.7972 27.6595 18.301 28.2597 18.9213C28.9028 19.5415 28.3883 20.6166 27.0163 21.6504L21.7427 25.7027C21.657 25.8267 21.4426 25.7854 21.314 25.6613Z" fill="white"/>
<path fill-rule="evenodd" clip-rule="evenodd" d="M13.3865 33.3111C13.5152 33.4351 13.558 33.6419 13.4723 33.7659L9.27054 38.852C8.19867 40.1752 7.04104 40.6714 6.44079 40.0512C5.79767 39.4309 6.31217 38.3558 7.68417 37.322L12.9578 33.2697C13.0435 33.1457 13.2579 33.187 13.3865 33.3111Z" fill="white"/>
<path fill-rule="evenodd" clip-rule="evenodd" d="M21.3139 33.3069C21.4425 33.1828 21.6569 33.1415 21.7855 33.2242L27.0591 37.2765C28.4311 38.3103 28.9456 39.4267 28.3025 40.0056C27.6594 40.6259 26.5446 40.1297 25.4728 38.8065L21.271 33.7204C21.1424 33.6377 21.1853 33.4309 21.3139 33.3069Z" fill="white"/>
<path fill-rule="evenodd" clip-rule="evenodd" d="M13.3864 25.6617C13.2578 25.7858 13.0434 25.8271 12.9148 25.7444L7.6412 21.6921C6.2692 20.6584 5.7547 19.5419 6.39782 18.963C7.04095 18.3427 8.1557 18.839 9.22757 20.1622L13.4293 25.2482C13.5579 25.3309 13.5151 25.5377 13.3864 25.6617Z" fill="white"/>
</g>
</g>
<defs>
<clipPath id="clip0_43509_53636">
<rect width="139" height="60" fill="white"/>
</clipPath>
<clipPath id="clip1_43509_53636">
<rect width="138.939" height="70" fill="white" transform="translate(0.03125 -5)"/>
</clipPath>
</defs>
</svg>
