<svg width="111" height="60" viewBox="0 0 111 60" fill="none" xmlns="http://www.w3.org/2000/svg">
<path d="M20.0647 20.985L12.2599 16.5092L4.45508 20.985V16.5092L12.2599 12.0334L20.0647 16.5092V20.985Z" fill="white"/>
<path d="M4.45508 24.7471H8.5417V34.6138C8.5417 37.1595 10.451 38.4074 12.2599 38.4074C14.0687 38.4074 15.978 37.1262 15.978 34.5805V24.7471H20.0646V34.8467C20.0646 37.1928 19.3277 39.0064 17.8371 40.2543C16.3465 41.5022 14.4874 42.1011 12.2264 42.1011C9.96532 42.1011 8.10624 41.5022 6.64913 40.2543C5.19201 39.0064 4.45508 37.2593 4.45508 34.9465C4.45508 34.9632 4.45508 24.7471 4.45508 24.7471ZM55.4207 37.0264C54.1813 38.1245 52.7744 38.657 51.1666 38.657C48.2356 38.657 46.2593 36.9931 46.0415 34.4307H59.2561C59.2561 34.4307 59.3398 33.5988 59.3398 32.8168C59.3398 30.4042 58.5694 28.3909 56.9783 26.7437C55.4207 25.0965 53.3941 24.2978 50.9321 24.2978C48.3361 24.2978 46.209 25.0965 44.5174 26.7437C42.8593 28.3909 42.0219 30.5373 42.0219 33.2161V33.3492C42.0219 35.9948 42.8593 38.1245 44.5174 39.6885C46.1755 41.2692 48.3696 42.0679 51.0326 42.0679C54.131 42.0679 56.6098 40.8533 58.4521 38.7568L55.4207 37.0264ZM47.6494 28.7736C48.5538 28.0748 49.6759 27.6921 50.9321 27.6921C52.1212 27.6921 53.0926 28.0582 53.9468 28.8069C54.7507 29.4724 55.1862 30.3044 55.2197 31.2528H46.1588C46.276 30.2877 46.7785 29.4558 47.6494 28.7736ZM96.5884 44.3474C94.9303 48.2408 93.1885 49.5552 90.5254 49.5552H88.6831V45.9613H90.1737C91.0949 45.9613 91.9323 45.6119 92.753 43.765L93.5569 41.9015L86.5561 24.7471H90.7097L95.684 37.0929L100.792 24.7471H104.946L96.5884 44.3474ZM35.9924 18.2747V26.2778C34.6526 25.0798 32.5758 24.381 30.5492 24.381C28.1542 24.381 26.1276 25.213 24.4695 26.9267C22.8449 28.6072 22.041 30.6871 22.041 33.1995C22.041 35.7119 22.8449 37.7917 24.4695 39.5055C26.1276 41.186 28.1542 42.018 30.5492 42.018C33.3127 42.018 35.0713 40.9364 35.9924 40.0879V41.6519H40.0456V18.2747H35.9924ZM34.7698 36.9099C33.7816 37.8916 32.5423 38.3907 31.0851 38.3907C29.628 38.3907 28.4556 37.8916 27.4675 36.9099C26.5296 35.9282 26.0439 34.697 26.0439 33.2161C26.0439 31.7353 26.5128 30.504 27.4675 29.5224C28.4556 28.5407 29.628 28.0415 31.0851 28.0415C32.5423 28.0415 33.7816 28.5407 34.7698 29.5224C35.7915 30.504 36.2939 31.7353 36.2939 33.2161C36.2939 34.697 35.7915 35.9282 34.7698 36.9099ZM80.2586 24.4143C77.1769 24.4143 75.5858 25.6788 74.4804 26.9101C74.045 26.0782 72.8056 24.4143 69.9248 24.4143C67.4796 24.4143 66.0392 25.6456 65.3358 26.5108V24.7471H61.3161V41.6685H65.3358V31.935C65.3358 29.6555 66.7594 28.0082 68.6519 28.0082C70.578 28.0082 71.7002 29.4558 71.7002 31.7686V41.6685H75.7198V31.935C75.7198 29.6222 77.1099 28.0082 79.103 28.0082C81.0291 28.0082 82.1512 29.4558 82.1512 31.7686V41.6685H86.2043V31.2029C86.1708 26.7936 83.7926 24.4143 80.2586 24.4143Z" fill="white"/>
</svg>
