<svg width="32" height="32" viewBox="0 0 32 32" fill="none" xmlns="http://www.w3.org/2000/svg">
<path d="M9.75596 25.6014L10.1808 25.8122C11.9131 26.8346 13.8935 27.369 15.909 27.3579C22.1137 27.3438 27.2117 22.2732 27.2117 16.1164C27.2117 13.1409 26.0207 10.2835 23.9029 8.17709C21.7879 6.04894 18.8984 4.84961 15.887 4.84961C9.71064 4.84961 4.62891 9.89283 4.62891 16.0208C4.62891 16.0693 4.62891 16.1171 4.62962 16.1656C4.64822 18.2491 5.23548 20.2886 6.32896 22.0674L6.61217 22.4889L5.47929 26.6342L9.75596 25.6014V25.6014Z" fill="#00CC69"/>
<path d="M22.2582 18.9346L21.4794 18.5833C21.4794 18.5833 20.3465 18.0915 19.6384 17.7402C19.5676 17.7402 19.4968 17.6699 19.426 17.6699C19.2514 17.6742 19.0808 17.7226 18.9303 17.8105C18.7795 17.8983 18.8595 17.8807 17.8683 19.0048C17.801 19.1362 17.6629 19.2185 17.5143 19.2156H17.4434C17.337 19.198 17.2383 19.149 17.1602 19.0751L16.8062 18.9346C16.0466 18.6155 15.351 18.1633 14.7528 17.5997C14.6112 17.4592 14.3988 17.3186 14.2572 17.1781C13.733 16.6799 13.2803 16.1125 12.9119 15.4919L12.8411 15.3514C12.7795 15.2655 12.7318 15.1707 12.6994 15.0703C12.6809 14.9486 12.706 14.8243 12.7703 14.7191C12.8347 14.6137 13.0535 14.3677 13.2659 14.157C13.4783 13.9462 13.4783 13.8057 13.6199 13.6652C13.6927 13.5649 13.743 13.4503 13.7674 13.3291C13.7919 13.2079 13.7898 13.0829 13.7615 12.9625C13.4316 12.0534 13.0534 11.1622 12.6286 10.2927C12.5148 10.117 12.3374 9.99129 12.133 9.94141H11.3541C11.2125 9.94141 11.0709 10.0117 10.9293 10.0117L10.8585 10.0819C10.7169 10.1522 10.5753 10.2927 10.4337 10.363C10.2921 10.4332 10.2213 10.644 10.0797 10.7845C9.58466 11.4052 9.31078 12.1711 9.30078 12.9625C9.30862 13.5193 9.42901 14.0688 9.65479 14.5785L9.72562 14.7893C10.3614 16.1381 11.2505 17.3542 12.3454 18.3725L12.6286 18.6536C12.8347 18.823 13.0244 19.0111 13.1951 19.2156C14.6622 20.4824 16.4047 21.3958 18.286 21.8855C18.4984 21.9558 18.7817 21.9558 18.9941 22.026H19.7021C20.0722 22.0079 20.4342 21.9121 20.7642 21.745C20.9377 21.667 21.1034 21.5728 21.2599 21.4639L21.4015 21.3234C21.5431 21.1829 21.6847 21.1126 21.8263 20.9721C21.9647 20.8498 22.084 20.7077 22.1803 20.5506C22.3163 20.2358 22.4119 19.9056 22.4636 19.5669V19.0751C22.3999 19.0184 22.3284 18.9711 22.2511 18.9346" fill="white"/>
<mask id="path-3-inside-1_2087_2460" fill="white">
<path d="M25.1605 6.91919C22.7495 4.47836 19.4422 3.10903 15.9982 3.12514H15.9763C8.88368 3.12516 3.04717 8.91666 3.04717 15.9545C3.04717 15.9875 3.04788 16.0199 3.04788 16.0529C3.07459 18.2905 3.65836 20.4869 4.74722 22.4465L3.81451 25.8281C3.40995 27.2949 4.74145 28.6513 6.21549 28.2739L9.76734 27.3646C11.6627 28.3972 13.7936 28.9294 15.9557 28.9104C23.0745 28.8717 28.9103 23.0472 28.9061 15.9826C28.9231 12.5884 27.5742 9.32415 25.1605 6.91919ZM15.9982 26.7323C14.0816 26.7422 12.1988 26.232 10.5533 25.2569L10.1284 25.0461L6.04294 26.1L7.10502 22.0952L6.82181 21.6736C5.76977 19.988 5.21241 18.0447 5.21238 16.062C5.21238 10.2151 10.0612 5.40366 15.9536 5.40366C21.8461 5.40366 26.6948 10.2151 26.6948 16.062C26.6948 19.7436 24.7725 23.1737 21.6202 25.1163C19.953 26.1761 18.0136 26.7371 16.0336 26.7323"/>
</mask>
<path d="M25.1605 6.91919C22.7495 4.47836 19.4422 3.10903 15.9982 3.12514H15.9763C8.88368 3.12516 3.04717 8.91666 3.04717 15.9545C3.04717 15.9875 3.04788 16.0199 3.04788 16.0529C3.07459 18.2905 3.65836 20.4869 4.74722 22.4465L3.81451 25.8281C3.40995 27.2949 4.74145 28.6513 6.21549 28.2739L9.76734 27.3646C11.6627 28.3972 13.7936 28.9294 15.9557 28.9104C23.0745 28.8717 28.9103 23.0472 28.9061 15.9826C28.9231 12.5884 27.5742 9.32415 25.1605 6.91919ZM15.9982 26.7323C14.0816 26.7422 12.1988 26.232 10.5533 25.2569L10.1284 25.0461L6.04294 26.1L7.10502 22.0952L6.82181 21.6736C5.76977 19.988 5.21241 18.0447 5.21238 16.062C5.21238 10.2151 10.0612 5.40366 15.9536 5.40366C21.8461 5.40366 26.6948 10.2151 26.6948 16.062C26.6948 19.7436 24.7725 23.1737 21.6202 25.1163C19.953 26.1761 18.0136 26.7371 16.0336 26.7323" fill="#00CC69"/>
<path d="M25.1605 6.91919L21.6283 10.4081L21.6423 10.4222L21.6563 10.4362L25.1605 6.91919ZM15.9982 3.12514V8.08987H16.0098L16.0214 8.08982L15.9982 3.12514ZM15.9763 3.12514V-1.83959H15.9762L15.9763 3.12514ZM3.04788 16.0529H-1.91685V16.0825L-1.9165 16.1122L3.04788 16.0529ZM4.74722 22.4465L9.53324 23.7666L10.073 21.8096L9.08701 20.0351L4.74722 22.4465ZM9.76734 27.3646L12.1424 23.0049L10.4277 22.0707L8.53604 22.555L9.76734 27.3646ZM15.9557 28.9104L15.9288 23.9457L15.9204 23.9457L15.9119 23.9458L15.9557 28.9104ZM28.9061 15.9826L23.9414 15.9578L23.9414 15.9717L23.9414 15.9856L28.9061 15.9826ZM10.5533 25.2569L13.0844 20.9858L12.9254 20.8916L12.7599 20.8095L10.5533 25.2569ZM10.1284 25.0461L12.3351 20.5987L10.6787 19.7769L8.88831 20.2387L10.1284 25.0461ZM6.04294 26.1L1.2441 24.8273L-0.930232 33.0261L7.28305 30.9073L6.04294 26.1ZM7.10502 22.0952L11.9039 23.3679L12.4805 21.1937L11.2261 19.3266L7.10502 22.0952ZM6.82181 21.6736L2.61009 24.3023L2.65423 24.373L2.70073 24.4422L6.82181 21.6736ZM5.21238 16.062H0.247653V16.0621L5.21238 16.062ZM21.6202 25.1163L19.0155 20.8897L18.9861 20.9079L18.9569 20.9264L21.6202 25.1163ZM6.21549 28.2739L7.44679 33.0836L6.21549 28.2739ZM28.6926 3.43028C25.3389 0.0350189 20.7481 -1.86187 15.975 -1.83954L16.0214 8.08982C18.1362 8.07992 20.1601 8.9217 21.6283 10.4081L28.6926 3.43028ZM15.9982 -1.83959H15.9763V8.08987H15.9982V-1.83959ZM15.9762 -1.83959C6.17805 -1.83956 -1.91756 6.13854 -1.91756 15.9545H8.0119C8.0119 11.6948 11.5893 8.08988 15.9763 8.08987L15.9762 -1.83959ZM-1.91756 15.9545C-1.91756 15.9802 -1.91743 16.0026 -1.91729 16.0195C-1.91716 16.0356 -1.91699 16.0506 -1.91692 16.0576C-1.91687 16.062 -1.91684 16.0644 -1.91682 16.0665C-1.9168 16.0684 -1.9168 16.0689 -1.9168 16.0686C-1.91681 16.068 -1.91685 16.0621 -1.91685 16.0529H8.01261C8.01261 16.0272 8.01247 16.0048 8.01233 15.9879C8.0122 15.9718 8.01204 15.9568 8.01196 15.9498C8.01191 15.9454 8.01189 15.943 8.01187 15.9409C8.01185 15.939 8.01184 15.9385 8.01185 15.9388C8.01185 15.9394 8.0119 15.9453 8.0119 15.9545H-1.91756ZM-1.9165 16.1122C-1.87993 19.1751 -1.08078 22.1795 0.407435 24.8579L9.08701 20.0351C8.39749 18.7942 8.02912 17.406 8.01225 15.9936L-1.9165 16.1122ZM-0.0387974 21.1264L-0.971506 24.5081L8.60053 27.1482L9.53324 23.7666L-0.0387974 21.1264ZM7.44679 33.0836L10.9986 32.1743L8.53604 22.555L4.98419 23.4643L7.44679 33.0836ZM7.39224 31.7244C10.0307 33.1618 12.9944 33.9014 15.9995 33.8749L15.9119 23.9458C14.5928 23.9575 13.2947 23.6326 12.1424 23.0049L7.39224 31.7244ZM15.9827 33.875C25.7974 33.8217 33.8767 25.8133 33.8708 15.9796L23.9414 15.9856C23.944 20.2811 20.3517 23.9217 15.9288 23.9457L15.9827 33.875ZM33.8708 16.0075C33.8944 11.2793 32.0156 6.74092 28.6647 3.40219L21.6563 10.4362C23.1329 11.9074 23.9517 13.8975 23.9414 15.9578L33.8708 16.0075ZM15.9725 21.7676C14.9534 21.7729 13.9545 21.5014 13.0844 20.9858L8.02216 29.5279C10.443 30.9626 13.2099 31.7115 16.0239 31.697L15.9725 21.7676ZM12.7599 20.8095L12.3351 20.5987L7.92179 29.4935L8.34662 29.7043L12.7599 20.8095ZM8.88831 20.2387L4.80282 21.2926L7.28305 30.9073L11.3685 29.8534L8.88831 20.2387ZM10.8418 27.3726L11.9039 23.3679L2.30618 20.8225L1.2441 24.8273L10.8418 27.3726ZM11.2261 19.3266L10.9429 18.905L2.70073 24.4422L2.98394 24.8638L11.2261 19.3266ZM11.0335 19.0449C10.4725 18.146 10.1771 17.1131 10.1771 16.0619L0.247653 16.0621C0.247695 18.9763 1.06708 21.8301 2.61009 24.3023L11.0335 19.0449ZM10.1771 16.062C10.1771 12.9932 12.7668 10.3684 15.9536 10.3684V0.438932C7.35555 0.438932 0.247653 7.43693 0.247653 16.062H10.1771ZM15.9536 10.3684C19.1404 10.3684 21.7301 12.9932 21.7301 16.062H31.6596C31.6596 7.43695 24.5517 0.438932 15.9536 0.438932V10.3684ZM21.7301 16.062C21.7301 18.0087 20.7113 19.8447 19.0155 20.8897L24.2249 29.3429C28.8337 26.5027 31.6596 21.4786 31.6596 16.062H21.7301ZM18.9569 20.9264C18.0912 21.4767 17.0804 21.7701 16.0456 21.7676L16.0217 31.697C18.9468 31.7041 21.8148 30.8754 24.2835 29.3063L18.9569 20.9264ZM-0.971506 24.5081C-2.39 29.651 2.27852 34.4067 7.44679 33.0836L4.98419 23.4643C7.20438 22.8959 9.20989 24.9389 8.60053 27.1482L-0.971506 24.5081Z" fill="#00CC69" mask="url(#path-3-inside-1_2087_2460)"/>
</svg>
